<svg width="42" height="42" viewBox="0 0 42 42" fill="none" xmlns="http://www.w3.org/2000/svg">
<path d="M21 1V41M2.00001 30.76C1.76247 30.6213 1.55608 30.4352 1.39375 30.2131C1.23142 29.9911 1.11664 29.7379 1.05657 29.4695C0.996506 29.2011 0.992452 28.9232 1.04466 28.6531C1.09687 28.3831 1.20423 28.1267 1.36001 27.9L19.36 1.86C19.5443 1.59594 19.7897 1.38029 20.0752 1.23139C20.3607 1.08248 20.678 1.00473 21 1.00473C21.322 1.00473 21.6393 1.08248 21.9248 1.23139C22.2104 1.38029 22.4557 1.59594 22.64 1.86L40.64 27.88C40.7991 28.1073 40.9092 28.3652 40.9633 28.6374C41.0174 28.9096 41.0142 29.19 40.954 29.4609C40.8938 29.7318 40.7779 29.9871 40.6137 30.2108C40.4494 30.4345 40.2404 30.6215 40 30.76L22.98 40.48C22.3767 40.8237 21.6943 41.0044 21 41.0044C20.3057 41.0044 19.6233 40.8237 19.02 40.48L2.00001 30.76Z" stroke="#554C4C" stroke-width="2" stroke-linecap="round" stroke-linejoin="round"/>
</svg>
