<svg width="42" height="40" viewBox="0 0 42 40" fill="none" xmlns="http://www.w3.org/2000/svg">
<path d="M20.9999 13C24.3137 13 26.9999 10.3137 26.9999 7C26.9999 3.68629 24.3137 1 20.9999 1C17.6862 1 14.9999 3.68629 14.9999 7C14.9999 10.3137 17.6862 13 20.9999 13Z" stroke="#554C4C" stroke-width="2" stroke-linecap="round" stroke-linejoin="round"/>
<path d="M9.99994 13C9.13445 13.009 8.29522 13.2985 7.60824 13.825C6.92126 14.3515 6.42359 15.0866 6.18994 15.92L1.19994 34C1.04875 34.5852 1.03212 35.197 1.15131 35.7895C1.2705 36.382 1.5224 36.9398 1.88811 37.421C2.25381 37.9022 2.72379 38.2942 3.26276 38.5677C3.80173 38.8412 4.39566 38.989 4.99994 39H36.9999C37.6173 38.9998 38.2262 38.8567 38.779 38.5819C39.3318 38.3071 39.8135 37.908 40.1864 37.416C40.5593 36.924 40.8132 36.3524 40.9283 35.7459C41.0435 35.1393 41.0166 34.5144 40.8499 33.92L35.7999 16C35.5797 15.1468 35.0839 14.3902 34.3895 13.8478C33.6951 13.3053 32.8411 13.0073 31.9599 13H9.99994Z" stroke="#554C4C" stroke-width="2" stroke-linecap="round" stroke-linejoin="round"/>
</svg>
