<svg width="34" height="34" viewBox="0 0 34 34" fill="none" xmlns="http://www.w3.org/2000/svg">
<path d="M17 1C14.8783 3.12173 13.6863 5.99942 13.6863 9C13.6863 12.0006 14.8783 14.8783 17 17C19.1217 19.1217 21.9994 20.3137 25 20.3137C28.0006 20.3137 30.8783 19.1217 33 17C33 20.1645 32.0616 23.2579 30.3035 25.8891C28.5454 28.5203 26.0466 30.5711 23.1229 31.7821C20.1993 32.9931 16.9823 33.3099 13.8786 32.6926C10.7749 32.0752 7.92394 30.5513 5.6863 28.3137C3.44866 26.0761 1.92481 23.2251 1.30744 20.1214C0.690079 17.0177 1.00693 13.8007 2.21793 10.8771C3.42894 7.95345 5.4797 5.45459 8.11088 3.69649C10.7421 1.93838 13.8355 1 17 1Z" stroke="currentColor" stroke-width="2" stroke-linecap="round" stroke-linejoin="round"/>
</svg>
