<svg width="32" height="32" viewBox="0 0 32 32" fill="none" xmlns="http://www.w3.org/2000/svg">
<rect width="32" height="32" rx="16" fill="#794E29"/>
<path d="M17.2088 23.0522C17.2088 23.137 17.5613 23.8282 17.7784 24.1694C18.6596 25.554 19.9003 26.4742 21.3538 26.8214C23.5732 27.3515 26.1759 26.5252 27.8866 24.7475L28.2659 24.3533L27.8978 24.6538C25.6678 26.4741 22.8054 26.8673 20.4006 25.6836C19.3691 25.1759 18.3876 24.3982 17.5497 23.4247C17.3622 23.2069 17.2088 23.0393 17.2088 23.0522Z" fill="#EBB143"/>
<path d="M14.8164 1.77253C12.6289 2.26639 11.0861 3.83445 10.5732 6.08507C10.4394 6.67246 10.4413 8.29583 10.5769 9.03365C10.8215 10.3657 11.31 11.7359 12.0467 13.1568L12.0845 13.2296C12.4849 14.0022 12.5664 14.1594 12.6954 14.2311C12.7284 14.2494 12.7645 14.2621 12.8098 14.2781L12.8266 14.284C12.9422 14.325 13.4595 14.5389 13.9763 14.7594C14.4931 14.9798 14.9563 15.1602 15.0058 15.1602C15.0552 15.1602 15.1106 15.1213 15.1289 15.0736C15.1429 15.037 15.1859 14.9474 15.2383 14.8381C15.3542 14.5964 15.5165 14.2578 15.5165 14.1784C15.5377 14.1441 15.2162 13.5512 15.0624 13.2836C14.2576 11.8839 13.6472 10.3289 13.443 9.15758C13.3328 8.52584 13.335 7.53258 13.4476 7.05494C13.7366 5.82857 14.5624 5.03865 15.7261 4.87539C16.2721 4.79877 16.7146 4.87095 17.2594 5.12558C18.6607 5.7806 19.0989 7.66672 18.4008 10.0393C17.8905 11.7735 16.5126 14.64 15.0021 17.1097C13.4498 19.6477 11.6281 21.3782 9.87921 21.9761C7.81816 22.6807 5.88904 21.5503 5.88904 19.638C5.88904 18.8131 6.15015 18.1749 6.7037 17.6469C7.08058 17.2875 7.46778 17.0735 7.96456 16.9501C8.38239 16.8463 9.46918 16.8342 9.64727 16.8609L9.68086 16.8659C10.2352 16.9491 12.8504 17.3414 13.3723 17.4577L13.4325 17.4713C13.544 17.497 13.6157 17.5134 13.679 17.4972C13.7928 17.4678 13.8793 17.3323 14.1216 16.9528L14.1941 16.8392C14.5451 16.2912 14.7196 15.9772 14.6894 15.948C14.5858 15.8479 12.3158 14.9097 11.586 14.6654C10.1627 14.189 9.56249 14.0798 8.39803 14.0855C7.54923 14.0896 7.36672 14.1085 6.85594 14.2452C4.42315 14.8963 2.82429 16.8766 2.7017 19.3905C2.64276 20.5991 2.94203 21.6747 3.61812 22.684C4.45746 23.9371 5.81622 24.8525 7.30779 25.1699C7.81752 25.2784 9.01699 25.2793 9.57959 25.1716C11.7663 24.7533 13.7069 23.3247 15.6848 20.6774C19.0857 16.1255 21.6431 10.5254 21.6431 7.63019C21.6431 4.81791 20.1177 2.62553 17.6426 1.88076L17.0525 1.7597C16.5184 1.65011 15.9699 1.62864 15.4288 1.69614L14.8164 1.77253Z" fill="#EBB143"/>
<path d="M20.171 14.8337L19.5318 16.1106C19.1304 16.9124 18.9281 17.3739 18.9879 17.3509C19.3412 17.2154 21.2936 16.8804 21.5002 16.9199C21.5002 16.9199 22.2777 16.9251 22.2959 16.8887C22.3141 16.8524 23.0916 16.8576 23.0916 16.8576C24.1584 16.8887 24.7959 17.0688 25.3745 17.6557C25.8932 18.1819 26.1347 18.7961 26.1348 19.5891C26.135 20.8025 25.3325 21.8212 24.1584 22.0979C23.627 22.2232 22.7053 22.1464 22.1051 21.927C21.5014 21.7063 20.83 21.3314 20.2744 20.9048C19.8521 20.5805 18.8754 19.6181 18.4255 19.0828C18.2858 18.9167 18.1585 18.7795 18.1424 18.778C18.1019 18.7742 16.567 21.0808 16.567 21.1456C16.5348 21.2295 18.125 22.8126 18.8426 23.4137C19.5445 24.0016 20.5724 24.5898 21.4208 24.8891C22.5568 25.2899 23.942 25.3725 25.0049 25.1028C26.2157 24.7956 27.2758 24.1316 28.0332 23.2057C29.5812 21.3137 29.7702 18.6785 28.5036 16.6464C27.826 15.5592 26.7433 14.713 25.5215 14.3155C24.7116 14.0521 23.2651 13.9702 22.356 14.1362L20.171 14.8337Z" fill="#EBB143"/>
<path d="M14.5248 23.4177C14.1172 23.8947 13.0793 24.8075 12.5005 25.1981C11.3889 25.9482 10.0849 26.3538 8.77747 26.3561C7.12697 26.359 5.20654 25.6344 4.09389 24.589C3.91657 24.4224 3.80005 24.3406 3.83494 24.407C3.92165 24.5723 4.65661 25.2591 5.08138 25.5718C6.7816 26.8235 9.02423 27.2805 10.9072 26.7591C12.1825 26.4059 13.3534 25.5369 14.1608 24.3445C14.4288 23.9486 14.8993 23.0948 14.867 23.063C14.8553 23.0515 14.7013 23.2111 14.5248 23.4177Z" fill="#EBB143"/>
</svg>
