<svg width="35" height="38" viewBox="0 0 35 38" fill="none" xmlns="http://www.w3.org/2000/svg">
<path d="M24.4 1V4.6M8.2 37V33.4C8.2 32.4452 8.57928 31.5295 9.25442 30.8544C9.92955 30.1793 10.8452 29.8 11.8 29.8H22.6C23.5548 29.8 24.4705 30.1793 25.1456 30.8544C25.8207 31.5295 26.2 32.4452 26.2 33.4V37M10 1V4.6M22.6 17.2C22.6 20.1823 20.1823 22.6 17.2 22.6C14.2177 22.6 11.8 20.1823 11.8 17.2C11.8 14.2177 14.2177 11.8 17.2 11.8C20.1823 11.8 22.6 14.2177 22.6 17.2ZM4.6 4.6H29.8C31.7882 4.6 33.4 6.21177 33.4 8.2V33.4C33.4 35.3882 31.7882 37 29.8 37H4.6C2.61177 37 1 35.3882 1 33.4V8.2C1 6.21177 2.61177 4.6 4.6 4.6Z" stroke="currentColor" stroke-width="2" stroke-linecap="round" stroke-linejoin="round"/>
</svg>
