<svg width="37" height="38" viewBox="0 0 37 38" fill="none" xmlns="http://www.w3.org/2000/svg">
<path d="M23.7375 37V21.8417C23.7375 21.3392 23.5378 20.8572 23.1825 20.5019C22.8272 20.1465 22.3452 19.9469 21.8427 19.9469H14.2635C13.761 19.9469 13.279 20.1465 12.9237 20.5019C12.5684 20.8572 12.3687 21.3392 12.3687 21.8417V37M1 16.1573C0.999868 15.6061 1.12 15.0614 1.35203 14.5614C1.58405 14.0613 1.92238 13.6179 2.34341 13.2621L15.6069 1.89525C16.2909 1.31717 17.1575 1 18.0531 1C18.9487 1 19.8153 1.31717 20.4993 1.89525L33.7628 13.2621C34.1838 13.6179 34.5221 14.0613 34.7542 14.5614C34.9862 15.0614 35.1063 15.6061 35.1062 16.1573V33.2104C35.1062 34.2155 34.7069 35.1794 33.9963 35.8901C33.2856 36.6007 32.3217 37 31.3166 37H4.78958C3.78452 37 2.82063 36.6007 2.10994 35.8901C1.39926 35.1794 1 34.2155 1 33.2104V16.1573Z" stroke="currentColor" stroke-width="2" stroke-linecap="round" stroke-linejoin="round"/>
</svg>
