<svg width="54" height="51" viewBox="0 0 54 51" fill="none" xmlns="http://www.w3.org/2000/svg">
<path d="M29.4177 43.1045C29.4177 43.2739 30.1225 44.6564 30.5569 45.3389C32.3192 48.108 34.8005 49.9484 37.7077 50.6427C42.1464 51.7029 47.3518 50.0504 50.7732 46.495L51.5317 45.7067L50.7956 46.3076C46.3357 49.9482 40.6109 50.7346 35.8011 48.3671C33.7381 47.3518 31.7752 45.7964 30.0994 43.8493C29.7245 43.4137 29.4177 43.0786 29.4177 43.1045Z" fill="#EBB143"/>
<path d="M24.6327 0.545058C20.2578 1.53278 17.1722 4.6689 16.1464 9.17013C15.8787 10.3449 15.8827 13.5917 16.1538 15.0673C16.6431 17.7315 17.6199 20.4718 19.0935 23.3137L19.1689 23.4593C19.9698 25.0043 20.1328 25.3188 20.3909 25.4621C20.4568 25.4987 20.5289 25.5242 20.6195 25.5561L20.6532 25.568C20.8843 25.65 21.9191 26.0778 22.9526 26.5188C23.9862 26.9597 24.9127 27.3205 25.0115 27.3205C25.1104 27.3205 25.2212 27.2425 25.2578 27.1472C25.2858 27.074 25.3717 26.8948 25.4766 26.6762C25.7083 26.1929 26.0331 25.5156 26.0331 25.3567C26.0755 25.2882 25.4325 24.1023 25.1247 23.5672C23.5151 20.7678 22.2945 17.6577 21.8859 15.3152C21.6656 14.0517 21.67 12.0652 21.8951 11.1099C22.4732 8.65714 24.1247 7.07729 26.4522 6.75077C27.5442 6.59755 28.4292 6.7419 29.5187 7.25117C32.3214 8.56121 33.1977 12.3334 31.8015 17.0787C30.781 20.547 28.0252 26.2799 25.0042 31.2195C21.8996 36.2954 18.2562 39.7564 14.7584 40.9522C10.6363 42.3614 6.77808 40.1007 6.77808 36.276C6.77808 34.6262 7.3003 33.3499 8.40741 32.2939C9.16115 31.5749 9.93555 31.147 10.9291 30.9002C11.7648 30.6926 13.9384 30.6683 14.2945 30.7217L14.3617 30.7318C15.4704 30.8981 20.7008 31.6827 21.7446 31.9153L21.8649 31.9427C22.088 31.9939 22.2314 32.0269 22.3579 31.9943C22.5856 31.9356 22.7586 31.6646 23.2431 30.9056L23.3883 30.6784C24.0902 29.5823 24.4391 28.9544 24.3788 28.896C24.1717 28.6958 19.6316 26.8194 18.172 26.3308C15.3254 25.3779 14.125 25.1596 11.7961 25.1709C10.0985 25.1792 9.73344 25.217 8.71187 25.4904C3.8463 26.7927 0.648572 30.7532 0.403391 35.781C0.285527 38.1983 0.884067 40.3495 2.23624 42.3681C3.91492 44.8742 6.63245 46.705 9.61557 47.3399C10.635 47.5568 13.034 47.5585 14.1592 47.3432C18.5325 46.5065 22.4139 43.6493 26.3695 38.3549C33.1713 29.251 38.2863 18.0508 38.2863 12.2604C38.2863 6.63582 35.2354 2.25105 30.2853 0.76153L28.2984 0.353914C27.7643 0.244329 27.2158 0.222858 26.6747 0.290351L24.6327 0.545058Z" fill="#EBB143"/>
<path d="M35.342 26.6673L34.0636 29.2211C33.2608 30.8249 32.8561 31.7479 32.9759 31.7019C33.6824 31.4308 37.5873 30.7607 38.0004 30.8397C38.0004 30.8397 39.5554 30.8502 39.5918 30.7775C39.6283 30.7047 41.1833 30.7152 41.1833 30.7152C43.3167 30.7775 44.5918 31.1376 45.7489 32.3115C46.7864 33.3639 47.2694 34.5922 47.2696 36.1781C47.27 38.6051 45.6649 40.6425 43.3167 41.1959C42.2541 41.4463 40.4105 41.2929 39.2102 40.854C38.0027 40.4126 36.66 39.6628 35.5488 38.8095C34.7042 38.1609 32.7509 36.2361 31.851 35.1657C31.5717 34.8334 31.3169 34.5591 31.2848 34.556C31.2037 34.5483 28.134 39.1616 28.134 39.2911C28.0696 39.4591 31.2499 42.6252 32.6852 43.8274C34.0889 45.0031 36.1449 46.1797 37.8415 46.7782C40.1135 47.5798 42.8839 47.7449 45.0099 47.2055C47.4315 46.5912 49.5515 45.2632 51.0665 43.4115C54.1623 39.6274 54.5403 34.357 52.0072 30.2928C50.6521 28.1185 48.4867 26.426 46.0429 25.6311C44.4231 25.1042 41.5302 24.9403 39.7121 25.2725L35.342 26.6673Z" fill="#EBB143"/>
<path d="M24.0496 43.8353C23.2344 44.7894 21.1587 46.6151 20.001 47.3962C17.7778 48.8964 15.1698 49.7076 12.5549 49.7122C9.25393 49.718 5.41308 48.2689 3.18779 46.178C2.83315 45.8449 2.6001 45.6811 2.66989 45.814C2.8433 46.1446 4.31322 47.5183 5.16277 48.1437C8.5632 50.6469 13.0485 51.5609 16.8144 50.5181C19.365 49.8119 21.7068 48.0739 23.3215 45.6889C23.8575 44.8972 24.7987 43.1895 24.734 43.126C24.7106 43.1029 24.4026 43.4221 24.0496 43.8353Z" fill="#EBB143"/>
</svg>
